<?xml version="1.0" encoding="utf-8"?>
<svg viewBox="11.397 8.26 72.084 98.149" xmlns="http://www.w3.org/2000/svg">
  <g data-v-423bf9ae="" id="3316e6ba-547f-4414-b9d0-60e5bb1fb40c" transform="matrix(1.158905, 0, 0, 1.151578, -10.506341, -0.244787)" stroke="none" fill="#D3316B" style="">
    <g>
      <path d="M55.96 47.095v.65c-.03-.03-.07-.06-.1-.1.04-.12.07-.26.09-.4.01-.05.01-.1.01-.15zM38.25 66.555c-.03.16-.06.33-.06.5-.06-.17-.11-.33-.15-.5h.21z" style="fill: rgb(255, 0, 89); stroke: rgb(255, 0, 89); stroke-width: 1.894px; paint-order: stroke;"/>
      <path d="M77.48 53.175l-.29-.49h-2.65c.98-1.63 1.25-3.89.69-6.07-.69-2.75-2.9-4.72-5.77-5.14-.36-.05-.72-.08-1.07-.08.49-2.48-.79-4.75-3.65-6.37-2.28-1.3-7.12-2.05-9.79.42-2.54-2.27-7.24-1.89-9.83-.42-2.85 1.62-4.13 3.89-3.65 6.37-.35 0-.71.03-1.07.08-2.86.42-5.07 2.39-5.77 5.14-.56 2.18-.29 4.44.69 6.07h-2.06v-45.3l-1.51.89c-7.93 4.68-12.85 13.3-12.85 22.49 0 9.19 4.92 17.81 12.85 22.48l.49.29a26.13 26.13 0 0 0-3.43 12.93c0 14.42 11.73 26.15 26.14 26.15 14.42 0 26.15-11.73 26.15-26.15 0-4.68-1.25-9.27-3.62-13.29zm-46.22-2.62c-6.43-4.47-10.36-11.9-10.36-19.79 0-7.89 3.93-15.32 10.36-19.8v39.59zm24.69-3.31c.01-.05.01-.1.01-.15v.65c.51.49 1.12.92 1.82 1.19.48.17.97.26 1.46.26.72 0 1.46-.19 2.2-.57.49-.25.69-.85.44-1.35-.26-.49-.86-.68-1.35-.43-.74.38-1.41.45-2.05.21-1.26-.46-2.19-2.01-2.52-2.74v-7c.97-1.27 2.85-1.6 4.61-1.44-1.06 1.2-2.4 3.3-1.64 5.64a.996.996 0 0 0 1.26.64c.52-.17.81-.74.64-1.26a2.35 2.35 0 0 1-.12-.78c0-1.95 2.15-3.71 2.18-3.73l.01-.01c.32.12.61.25.85.39 2.4 1.36 3.23 3.03 2.47 4.97-1.53.5-2.85 1.53-3.72 2.98-.28.48-.13 1.09.35 1.38.47.28 1.09.12 1.37-.35 1.22-2.05 3.36-2.53 4.95-2.29 1.61.23 3.53 1.32 4.13 3.65.42 1.66.23 3.41-.48 4.57-.22.36-.34.69-.39 1.01h-5.95c-.05-.34-.05-.66-.04-.89.69-.27 1.39-.66 2-1.21 1.3-1.19 1.99-2.84 2.02-4.93.01-.55-.43-1-.98-1.01-.52 0-1.01.43-1.02.98-.03 1.5-.48 2.67-1.36 3.47-1.35 1.23-3.38 1.35-4.15 1.35-.19 0-.31-.01-.31-.01a.998.998 0 0 0-1.08.91c-.04.55.37 1.03.92 1.08.03 0 .21.02.5.02.36 0 .87-.02 1.47-.11 0 .11.01.23.02.35h-8.51v-4.94c-.03-.03-.07-.06-.1-.1.04-.12.07-.26.09-.4zm-19.38-.14c.59-2.33 2.51-3.42 4.12-3.65 1.6-.24 3.73.24 4.96 2.29.28.47.89.63 1.37.35.47-.29.63-.9.34-1.38-.87-1.45-2.17-2.48-3.71-2.97h-.01c-.76-1.94.07-3.62 2.47-4.98.24-.14.52-.27.84-.38.02.02 2.79 2.28 2.06 4.51a1.006 1.006 0 0 0 .95 1.31c.42 0 .81-.27.95-.69.76-2.34-.58-4.44-1.64-5.64 1.78-.18 3.69.14 4.69 1.42v9.7c-.16.75-1.92 1.09-2.83 1.11a1 1 0 0 0 .01 2h.01c.25-.01 1.6-.05 2.81-.56v3.14h-8.47c.01-.12.02-.24.02-.35.6.09 1.11.11 1.47.11.29 0 .47-.02.5-.02.55-.05.96-.53.91-1.08a.989.989 0 0 0-1.07-.91c-.03 0-2.78.19-4.47-1.34-.87-.8-1.33-1.97-1.36-3.47-.01-.55-.5-1.02-1.01-.98-.55.01-.99.46-.99 1.01.04 2.09.72 3.74 2.03 4.93.61.55 1.3.94 1.99 1.21.02.23.02.55-.04.89h-6.03c-.05-.32-.17-.66-.39-1.01-.72-1.16-.9-2.91-.48-4.57zm18.38 43.51c-12.61 0-22.99-9.72-24.05-22.06h5.3c.43 4.43 4.18 7.91 8.74 7.91.25 0 .49-.01.73-.03h.01a8.77 8.77 0 0 0 6.15-3.32 8.588 8.588 0 0 0 1.84-4.56h3.68c.17 1.76.86 3.37 1.94 4.68a8.729 8.729 0 0 0 5.15 3.08h.01c.53.1 1.07.15 1.63.15 4.55 0 8.3-3.48 8.73-7.91h4.2c-1.06 12.34-11.44 22.06-24.06 22.06zm-16.91-24.06h.21c.23-1.39.89-2.64 1.83-3.6a6.766 6.766 0 0 1 4.86-2.05c3.36 0 6.15 2.45 6.68 5.65.06.33.09.66.09 1 .01.04.01.09.01.13 0 .3-.02.59-.07.87a6.737 6.737 0 0 1-5.61 5.81c-.36.07-.73.1-1.1.1-.48 0-.95-.05-1.4-.15a6.764 6.764 0 0 1-5.32-5.76c-.05-.28-.07-.57-.07-.87 0-.04 0-.09.01-.13-.01-.17 0-.33.03-.49v-.01c-.06-.17-.11-.33-.15-.5zm34.72 0c.06.33.09.66.09 1 .01.04.01.09.01.13 0 .3-.02.59-.07.87-.41 3.27-3.17 5.82-6.53 5.9-.06.01-.12.01-.18.01-.7 0-1.38-.11-2.01-.31a6.76 6.76 0 0 1-4.7-5.6c-.05-.28-.07-.57-.07-.87 0-.04 0-.09.01-.13 0-.34.03-.67.09-1 .23-1.39.88-2.63 1.83-3.59.54-.57 1.19-1.04 1.91-1.38h.05c.89-.44 1.84-.68 2.89-.68 1 0 1.95.22 2.8.61.59.27 1.14.62 1.63 1.05.28.23.53.49.76.77h.01c.3.36.56.69.78 1.11.01 0 .01.01.01.01v.05c.33.63.57 1.32.69 2.05zm2.02 0a8.631 8.631 0 0 0-3.03-5.56c-.52-.45-1.1-.84-1.73-1.15-.69-.35-1.44-.61-2.22-.77-.56-.11-1.13-.17-1.72-.17-4.46 0-8.15 3.34-8.7 7.65h-3.74c-.55-4.31-4.24-7.65-8.7-7.65-.91 0-1.8.14-2.63.41a8.808 8.808 0 0 0-3.54 2.12c-.14.14-.28.28-.4.43-.32.35-.61.74-.86 1.14a8.614 8.614 0 0 0-1.28 3.55h-5.42v-.09c0-4.13 1.06-8.19 3.07-11.78h42.16c2 3.59 3.06 7.65 3.06 11.78v.09h-4.32z" style="fill: rgb(255, 0, 89); stroke: rgb(255, 0, 89); stroke-width: 1.894px; paint-order: stroke;"/>
      <path d="M55.96 47.095v.65c-.03-.03-.07-.06-.1-.1.04-.12.07-.26.09-.4.01-.05.01-.1.01-.15z" style="fill: rgb(255, 0, 89); stroke: rgb(255, 0, 89); stroke-width: 1.894px; paint-order: stroke;"/>
      <g>
        <path d="M38.04 66.555c.04.17.09.33.15.5 0-.17.03-.34.06-.5h-.21z" style="fill: rgb(255, 0, 89); stroke: rgb(255, 0, 89); stroke-width: 1.894px; paint-order: stroke;"/>
      </g>
      <g>
        <path d="M38.25 66.555c-.03.16-.06.33-.06.5-.06-.17-.11-.33-.15-.5h.21z" style="fill: rgb(255, 0, 89); stroke: rgb(255, 0, 89); stroke-width: 1.894px; paint-order: stroke;"/>
        <path d="M38.04 66.555c.04.17.09.33.15.5 0-.17.03-.34.06-.5h-.21z" style="fill: rgb(255, 0, 89); stroke: rgb(255, 0, 89); stroke-width: 1.894px; paint-order: stroke;"/>
        <path d="M38.04 66.555c.04.17.09.33.15.5 0-.17.03-.34.06-.5h-.21z" style="fill: rgb(255, 0, 89); stroke: rgb(255, 0, 89); stroke-width: 1.894px; paint-order: stroke;"/>
      </g>
    </g>
  </g>
</svg>