<svg data-v-fde0c5aa="" xmlns="http://www.w3.org/2000/svg" viewBox="0 0 300 300" class="font"><!----><defs data-v-fde0c5aa=""><!----></defs><rect data-v-fde0c5aa="" fill="#3B0548" x="0" y="0" width="300px" height="300px" class="logo-background-square"></rect><defs data-v-fde0c5aa=""><!----></defs><g data-v-fde0c5aa="" id="cfd8dd53-8cbb-44b0-b20f-b80a4803ea18" fill="#D32E6B" transform="matrix(5.3606236620907035,0,0,5.3606236620907035,42.19785568228609,118.4527288411649)"><path d="M6.86 11.09L6.86 11.09L5.46 7.06L3.53 7.06L2.13 11.09L-0.41 11.09L3.21 0.67L5.78 0.67L9.39 11.09L6.86 11.09ZM19.75 0.67L19.75 0.67L19.75 0.67L19.75 11.09L17.40 11.09L17.40 7.45L16.13 11.09L13.78 11.09L12.47 7.34L12.47 11.09L10.12 11.09L10.12 0.67L12.52 0.67L14.95 7.70L17.40 0.67L17.40 0.67L19.75 0.67ZM23.11 0.67L23.11 0.67L23.11 11.09L20.76 11.09L20.76 0.67L23.11 0.67ZM29.44 0.67L29.44 0.67L31.79 0.67L31.79 11.09L29.41 11.09L26.47 5.26L26.47 11.09L24.12 11.09L24.12 0.67L26.52 0.67L29.44 6.48L29.44 0.67ZM40.63 6.94L40.63 6.94L40.63 6.94Q40.61 7.77 40.32 8.51L40.32 8.51L40.32 8.51Q40.03 9.25 39.47 9.84L39.47 9.84L39.47 9.84Q38.89 10.46 38.16 10.78L38.16 10.78L38.16 10.78Q37.42 11.10 36.60 11.10L36.60 11.10L36.58 11.10L36.58 11.10Q35.77 11.10 35.03 10.78L35.03 10.78L35.03 10.78Q34.30 10.46 33.71 9.86L33.71 9.86L33.71 9.86Q33.17 9.27 32.87 8.53L32.87 8.53L32.87 8.53Q32.56 7.78 32.55 6.94L32.55 6.94L32.55 4.51L32.55 4.51Q32.62 3.77 32.92 3.11L32.92 3.11L32.92 3.11Q33.22 2.45 33.71 1.92L33.71 1.92L33.71 1.92Q34.30 1.32 35.03 0.99L35.03 0.99L35.03 0.99Q35.76 0.67 36.58 0.67L36.58 0.67L36.60 0.67L36.60 0.67Q37.42 0.67 38.16 0.99L38.16 0.99L38.16 0.99Q38.89 1.32 39.47 1.92L39.47 1.92L39.47 1.92Q39.97 2.45 40.26 3.11L40.26 3.11L40.26 3.11Q40.56 3.77 40.63 4.51L40.63 4.51L40.63 4.82L40.63 6.10L40.63 6.94Z"></path></g><!----><!----></svg>